<svg width="40" height="40" viewBox="0 0 40 40" fill="none" xmlns="http://www.w3.org/2000/svg">
<path d="M18.3333 33.3334C17.8611 33.3334 17.4652 33.1736 17.1458 32.8542C16.8264 32.5347 16.6666 32.1389 16.6666 31.6667V21.6667L6.99997 9.33335C6.5833 8.7778 6.5208 8.19446 6.81247 7.58335C7.10414 6.97224 7.61108 6.66669 8.3333 6.66669H31.6666C32.3889 6.66669 32.8958 6.97224 33.1875 7.58335C33.4791 8.19446 33.4166 8.7778 33 9.33335L23.3333 21.6667V31.6667C23.3333 32.1389 23.1736 32.5347 22.8541 32.8542C22.5347 33.1736 22.1389 33.3334 21.6666 33.3334H18.3333ZM20 20.5L28.25 10H11.75L20 20.5Z" fill="#A68444"/>
</svg>
