<svg width="26" height="26" viewBox="0 0 26 26" fill="none" xmlns="http://www.w3.org/2000/svg">
<path d="M13 18C14.2292 18 15.5573 17.7865 16.9844 17.3594C18.4115 16.9323 20.3854 16.1667 22.9062 15.0625C22.9479 14.8333 22.974 14.6094 22.9844 14.3906C22.9948 14.1719 23 13.9479 23 13.7188C23 13.4896 22.9115 13.3021 22.7344 13.1562C22.5573 13.0104 22.3542 12.9688 22.125 13.0312C21.8333 13.1354 21.5104 13.2448 21.1562 13.3594C20.8021 13.474 20.3542 13.6458 19.8125 13.875C18.375 14.4792 17.1458 14.901 16.125 15.1406C15.1042 15.3802 14.0625 15.5 13 15.5C11.9167 15.5 10.8542 15.375 9.8125 15.125C8.77083 14.875 7.5 14.4479 6 13.8438C5.45833 13.6146 5.04167 13.4479 4.75 13.3438L3.875 13.0312C3.64583 12.9479 3.44271 12.9844 3.26562 13.1406C3.08854 13.2969 3 13.4896 3 13.7188C3 13.9479 3.00521 14.1719 3.01562 14.3906C3.02604 14.6094 3.05208 14.8333 3.09375 15.0625C5.19792 16.0625 7.06771 16.8021 8.70312 17.2812C10.3385 17.7604 11.7708 18 13 18ZM13 23C14.9583 23 16.6979 22.5729 18.2188 21.7188C19.7396 20.8646 20.9271 19.7188 21.7812 18.2812C19.9479 19.0521 18.3333 19.6146 16.9375 19.9688C15.5417 20.3229 14.2292 20.5 13 20.5C11.7917 20.5 10.4479 20.3177 8.96875 19.9531C7.48958 19.5885 5.89583 19.0417 4.1875 18.3125C5.02083 19.75 6.20312 20.8906 7.73438 21.7344C9.26562 22.5781 11.0208 23 13 23ZM13 10.5C11.625 10.5 10.4479 10.0104 9.46875 9.03125C8.48958 8.05208 8 6.875 8 5.5C8 4.125 8.48958 2.94792 9.46875 1.96875C10.4479 0.989583 11.625 0.5 13 0.5C14.375 0.5 15.5521 0.989583 16.5312 1.96875C17.5104 2.94792 18 4.125 18 5.5C18 6.875 17.5104 8.05208 16.5312 9.03125C15.5521 10.0104 14.375 10.5 13 10.5ZM13 8C13.6875 8 14.276 7.75521 14.7656 7.26562C15.2552 6.77604 15.5 6.1875 15.5 5.5C15.5 4.8125 15.2552 4.22396 14.7656 3.73438C14.276 3.24479 13.6875 3 13 3C12.3125 3 11.724 3.24479 11.2344 3.73438C10.7448 4.22396 10.5 4.8125 10.5 5.5C10.5 6.1875 10.7448 6.77604 11.2344 7.26562C11.724 7.75521 12.3125 8 13 8ZM13 25.5C9.3125 25.5 6.30729 24.4062 3.98438 22.2188C1.66146 20.0312 0.5 17.1979 0.5 13.7188C0.5 12.6354 0.932292 11.7708 1.79688 11.125C2.66146 10.4792 3.60417 10.3229 4.625 10.6562C4.95833 10.7604 5.30729 10.8802 5.67188 11.0156C6.03646 11.151 6.46875 11.3229 6.96875 11.5312C8.30208 12.0729 9.40625 12.4531 10.2812 12.6719C11.1562 12.8906 12.0625 13 13 13C13.8958 13 14.7812 12.8958 15.6562 12.6875C16.5312 12.4792 17.6042 12.1042 18.875 11.5625C19.4792 11.3333 19.9635 11.1458 20.3281 11C20.6927 10.8542 21.0521 10.7292 21.4062 10.625C22.4271 10.3333 23.3646 10.5104 24.2188 11.1562C25.0729 11.8021 25.5 12.6562 25.5 13.7188C25.5 15.3646 25.1771 16.901 24.5312 18.3281C23.8854 19.7552 23 21 21.875 22.0625C20.75 23.125 19.4271 23.9635 17.9062 24.5781C16.3854 25.1927 14.75 25.5 13 25.5Z" fill="#E8EAED"/>
</svg>
