<svg width="100" height="100" viewBox="0 0 100 100" fill="none" xmlns="http://www.w3.org/2000/svg">
<g id="image ico">
<path id="Vector" d="M20.8333 87.5C18.5417 87.5 16.5799 86.684 14.9479 85.0521C13.316 83.4201 12.5 81.4583 12.5 79.1667V20.8333C12.5 18.5417 13.316 16.5799 14.9479 14.9479C16.5799 13.316 18.5417 12.5 20.8333 12.5H79.1667C81.4583 12.5 83.4201 13.316 85.0521 14.9479C86.684 16.5799 87.5 18.5417 87.5 20.8333V79.1667C87.5 81.4583 86.684 83.4201 85.0521 85.0521C83.4201 86.684 81.4583 87.5 79.1667 87.5H20.8333ZM20.8333 79.1667H79.1667V20.8333H20.8333V79.1667ZM25 70.8333H75L59.375 50L46.875 66.6667L37.5 54.1667L25 70.8333Z" fill="#B19256"/>
</g>
</svg>
