<svg width="244" height="128" viewBox="0 0 244 128" fill="none" xmlns="http://www.w3.org/2000/svg">
<g id="open-book">
<path id="path14684" fill-rule="evenodd" clip-rule="evenodd" d="M0.686768 47.14C17.5132 75.4723 32.6191 98.9845 49.4455 127.31C84.0159 110.68 98.6698 105.062 128.767 94.6241C141.93 98.4099 155.781 91.5279 161.394 86.3631C186.229 82.9221 215.186 78.7984 243.118 76.0402C242.43 71.5716 243.806 69.8477 243.118 65.3792C214.161 44.1587 184.86 21.9107 155.896 0.690186C103.015 15.7183 53.5678 32.1187 0.686768 47.14Z" fill="#2A180A"/>
<path id="path14685" fill-rule="evenodd" clip-rule="evenodd" d="M7.21094 48.1743C22.3237 72.2611 37.4296 96.3412 52.5356 120.428C79.3202 106.319 111.118 85.3084 135.986 90.9194C134.779 82.6246 138.671 77.9803 143.536 72.5991C103.13 65.609 82.9837 88.8914 54.256 100.127C53.6826 105.975 53.1091 111.829 52.5356 117.677C53.3385 112.059 53.4532 106.434 54.256 100.816C41.2078 80.5154 25.7578 55.0562 12.7028 34.7551C8.47259 36.817 8.0138 43.3542 7.21094 48.1743Z" fill="#FFFCCE" stroke="#2A180A" stroke-width="3.75"/>
<path id="path14686" fill-rule="evenodd" clip-rule="evenodd" d="M139.758 80.5155C150.863 59.295 159.863 57.801 181.655 54.7115C198.717 52.2914 210.686 52.8592 228.086 52.0615C226.595 57.1047 229.152 63.7703 231.439 70.5373C215.072 71.2269 202.138 70.1926 184.057 72.5992C172.034 71.5717 161.394 79.1364 153.494 87.0527C154.182 72.3761 145.938 81.4349 139.758 80.5155Z" fill="#FFFCCE" stroke="#2A180A" stroke-width="3.75"/>
<path id="path14687" fill-rule="evenodd" clip-rule="evenodd" d="M89.6226 22.0255L141.134 71.9163C99.5268 66.7515 77.3165 92.0416 53.912 100.303C40.405 78.8523 26.0412 56.0297 12.5342 34.5793C29.4753 26.44 40.6614 13.0209 65.2465 11.013C74.7729 10.2356 82.1876 16.6308 89.6226 22.0255Z" fill="#FFFCCE" stroke="#2A180A" stroke-width="2.5"/>
<path id="path950" fill-rule="evenodd" clip-rule="evenodd" d="M143.61 72.7681C156.395 51.115 182.781 54.272 227.863 50.8716C204.067 34.647 180.272 18.4291 156.476 2.21118C125.313 8.29542 104.35 -4.60317 87.5173 19.4837L143.61 72.7681Z" fill="#FFFCCE" stroke="#2A180A" stroke-width="2.5"/>
</g>
</svg>
